<svg id="Layer_1" data-name="Layer 1" xmlns="http://www.w3.org/2000/svg" viewBox="0 0 330.77 54.56"><defs><style>.cls-1{fill:#fff}.cls-2{fill:#ee7623}</style></defs><path class="cls-1" d="m132.29 394 6.45-3a9 9 0 0 0 3.36 5.08 10.54 10.54 0 0 0 6.25 1.74 8 8 0 0 0 5.72-2 7 7 0 0 0 2.13-5.36q0-4.38-7.27-7.81-1-.51-1.56-.75-8.22-4-11-7.25a11.83 11.83 0 0 1-2.73-7.93 12.69 12.69 0 0 1 4.12-9.84q4.13-3.78 10.82-3.77a18.27 18.27 0 0 1 9.19 2.12 11.21 11.21 0 0 1 5.13 6.09l-6.31 3.26a10.49 10.49 0 0 0-3.28-3.42 7.65 7.65 0 0 0-4.09-1.09 7.55 7.55 0 0 0-5.18 1.7 5.77 5.77 0 0 0-1.92 4.55q0 4.47 8.42 8.35l1 .48q7.37 3.39 10.12 6.63a12.1 12.1 0 0 1 2.75 8.1q0 7.06-4.45 11.22t-12 4.16a17.39 17.39 0 0 1-10.41-2.92 13.69 13.69 0 0 1-5.26-8.34ZM169.92 404v-52.65h6.92v25.7a13.88 13.88 0 0 1 5.2-4.85 15.77 15.77 0 0 1 7.26-1.53 15 15 0 0 1 6.13 1.13 8.93 8.93 0 0 1 4 3.39 9.32 9.32 0 0 1 1.22 3.08 34.49 34.49 0 0 1 .37 6.18V404h-7.43v-16.56q0-6.35-1.55-8.44t-5.48-2.08a10.6 10.6 0 0 0-4.6.95 7.62 7.62 0 0 0-3.18 2.68 7.29 7.29 0 0 0-1.13 3 36 36 0 0 0-.33 5.79V404ZM238.3 404h-7.37v-4.2a12.24 12.24 0 0 1-10.63 5.5q-6.83 0-10.74-4.67t-3.92-12.78q0-7.71 4-12.45a14.15 14.15 0 0 1 17.19-3.08 9.58 9.58 0 0 1 4.09 4.73v-5.26h7.37Zm-7.16-16.2q0-5-2.33-7.77a8 8 0 0 0-6.5-2.79 8.1 8.1 0 0 0-6.57 2.87c-1.6 1.91-2.39 4.57-2.39 8s.76 6.06 2.3 7.91a8.72 8.72 0 0 0 13-.23 12.13 12.13 0 0 0 2.49-8.01ZM253.08 376.92a10.42 10.42 0 0 1 3.13-4.72 7.62 7.62 0 0 1 4.85-1.53 12.62 12.62 0 0 1 3.06.37 14.87 14.87 0 0 1 3 1.09l-2.65 6.24a7 7 0 0 0-2.05-1 9 9 0 0 0-2.47-.32 5.52 5.52 0 0 0-5.26 2.94c-1.07 2-1.59 5.24-1.59 9.86V404h-7.4v-32.28h7.38ZM299.53 389h-25.74a10.84 10.84 0 0 0 2.68 7 8.48 8.48 0 0 0 6.42 2.52 11 11 0 0 0 5.94-1.49 12.3 12.3 0 0 0 4.14-4.82l6.22 3.46a18.76 18.76 0 0 1-6.73 7.23 18 18 0 0 1-9.4 2.38q-7.74 0-12.33-4.72T266.15 388a17.15 17.15 0 0 1 4.73-12.44 16.24 16.24 0 0 1 12.18-4.87q7.77 0 12.12 4.45t4.35 12.46Zm-7.64-5a7.82 7.82 0 0 0-2.65-5.28 9.27 9.27 0 0 0-6.05-1.81 9 9 0 0 0-5.83 1.76 9.38 9.38 0 0 0-3.09 5.33Z" transform="translate(-132.29 -351.35)"/><path class="cls-2" d="m320.82 405.91-22.17-51.64H307l11.14 26.48c.65 1.54 1.2 3 1.63 4.26a36.29 36.29 0 0 1 1 3.72c.29-1.24.67-2.53 1.12-3.87s1-2.7 1.59-4.11l11.11-26.48H343ZM371.11 404h-7.37v-4.2a12.24 12.24 0 0 1-10.63 5.5q-6.83 0-10.75-4.67t-3.92-12.78q0-7.71 4-12.45a14.16 14.16 0 0 1 17.2-3.08 9.63 9.63 0 0 1 4.09 4.73v-5.26h7.37Zm-7.17-16.2q0-5-2.32-7.77a8 8 0 0 0-6.51-2.79 8.12 8.12 0 0 0-6.57 2.87c-1.6 1.91-2.39 4.57-2.39 8s.77 6.06 2.31 7.91a8.7 8.7 0 0 0 13-.23 12.07 12.07 0 0 0 2.48-8.01ZM378.85 404v-52.65h7.37V404ZM401.09 371.79v18.13c0 3.12.65 5.37 1.94 6.72s3.38 2 6.28 2 5-.68 6.28-2 1.94-3.6 1.94-6.72v-18.13h7.36v15.92q0 9.24-3.69 13.42c-2.48 2.78-6.41 4.17-11.82 4.17s-9.49-1.38-12-4.14-3.69-7.25-3.69-13.45v-15.92ZM463.06 389h-25.73a10.84 10.84 0 0 0 2.67 7 8.48 8.48 0 0 0 6.42 2.52 10.91 10.91 0 0 0 5.94-1.49 12.32 12.32 0 0 0 4.15-4.82l6.21 3.46a18.74 18.74 0 0 1-6.72 7.23 18.05 18.05 0 0 1-9.41 2.38q-7.74 0-12.32-4.72T429.68 388a17.11 17.11 0 0 1 4.74-12.44 16.23 16.23 0 0 1 12.17-4.87q7.79 0 12.12 4.45t4.35 12.46Zm-7.64-5a7.74 7.74 0 0 0-2.65-5.28 9.22 9.22 0 0 0-6-1.81 9.06 9.06 0 0 0-5.84 1.76 9.49 9.49 0 0 0-3.13 5.33Z" transform="translate(-132.29 -351.35)"/></svg>